<svg xmlns="http://www.w3.org/2000/svg" viewBox="65.07636 16 262.944 480">
  <defs>
    <linearGradient id="top-left-gradient" x1="111.01138" x2="111.01138" y1="84.902527" y2="176.77258" gradientUnits="userSpaceOnUse">
      <stop offset="0" stop-color="#902522"/>
      <stop offset="0.5" stop-color="#000000" stop-opacity="0"/>
    </linearGradient>
    <linearGradient id="top-right-gradient" x1="282.0853" x2="282.0853" y1="84.902527" y2="176.77258" gradientUnits="userSpaceOnUse">
      <stop offset="0" stop-color="#902522"/>
      <stop offset="0.5" stop-color="#000000" stop-opacity="0"/>
    </linearGradient>
    <linearGradient id="bottom-gradient" x1="196.54836" x2="196.54836" y1="446.8984" y2="315.4264" gradientUnits="userSpaceOnUse">
      <stop offset="0" stop-color="#902522"/>
      <stop offset="0.5" stop-color="#000000" stop-opacity="0"/>
    </linearGradient>
  </defs>
  <path d="m 328.02036,346 v 150 c -30.12803,-7.135 -61.60105,-10.70803 -91.87008,-12.05203 V 346 Z M 236.15028,166 V 16 h 91.87008 v 150 z" fill="#a72b2a"/>
  <path d="m 156.94636,16 h -91.87 v 480 c 30.128,-7.135 61.601,-10.70803 91.87,-12.05203 z" fill="#a72b2a"/>
  <path d="M 328.02036,496 C 240.5017,478.89237 152.8544,478.80367 65.07636,496 v -91.87008 c 87.648,-17.152 175.296,-17.152 262.944,0 z" fill="#d8282f"/>
  <path d="m 328.02036,107.87008 -262.944,0 V 16 h 262.944 z" fill="#d8282f"/>
  <path d="m 236.15023,346.54675 v 46.01588 c 30.39279,1.83855 61.01234,5.66075 91.87013,11.56725 V 358.195 c -30.62338,-5.99275 -61.24675,-9.84312 -91.87013,-11.64825 z" fill="url(#bottom-gradient)"/>
  <path d="m 156.94648,346.54675 c -30.62337,1.80513 -61.246744,5.6555 -91.87012,11.64825 v 45.93488 c 30.375307,-6.08021 61.00206,-9.96092 91.87012,-11.73038 z" fill="url(#bottom-gradient)"/>
  <path d="m 328.02036,153.80512 h -91.87008 v -45.93504 h 91.87008 z" fill="url(#top-right-gradient)"/>
  <path d="M 156.94644,153.80512 H 65.07636 v -45.93504 h 91.87008 z" fill="url(#top-left-gradient)"/>
</svg>
